<?xml version="1.0" encoding="UTF-8" standalone="yes"?><svg xmlns="http://www.w3.org/2000/svg" xmlns:xlink="http://www.w3.org/1999/xlink" height="348pt" style="width:437px;height:348px;" version="1.1" viewBox="0 0 437 348" width="437pt"><defs><filter height="300%" id="f1" width="300%" x="-1" y="-1"><feGaussianBlur result="blurOut" stdDeviation="2.0"/><feColorMatrix in="blurOut" result="blurOut2" type="matrix" values="0 0 0 0 0 0 0 0 0 0 0 0 0 0 0 0 0 0 .4 0"/><feOffset dx="4.0" dy="4.0" in="blurOut2" result="blurOut3"/><feBlend in="SourceGraphic" in2="blurOut3" mode="normal"/></filter></defs><g><rect fill="#FEFECE" filter="url(#f1)" height="60.9551" style="stroke: #A80036; stroke-width: 1.5;" width="136" x="181.25" y="8.5"/><ellipse cx="196.25" cy="24.5" fill="#B4A7E5" rx="11" ry="11" style="stroke: #A80036; stroke-width: 1.0;"/><path d="M192.1777,20.2651 L192.1777,18.1069 L199.5571,18.1069 L199.5571,20.2651 L197.0918,20.2651 L197.0918,28.3418 L199.5571,28.3418 L199.5571,30.5 L192.1777,30.5 L192.1777,28.3418 L194.6431,28.3418 L194.6431,20.2651 Z "/><text fill="#000000" font-family="sans-serif" font-size="12" font-style="italic" lengthAdjust="spacingAndGlyphs" textLength="104" x="210.25" y="29.0352">RendererInterface</text><line style="stroke: #A80036; stroke-width: 1.5;" x1="182.25" x2="316.25" y1="40.5" y2="40.5"/><line style="stroke: #A80036; stroke-width: 1.5;" x1="182.25" x2="316.25" y1="48.5" y2="48.5"/><ellipse cx="192.25" cy="60.4775" fill="#84BE84" rx="3" ry="3" style="stroke: #038048; stroke-width: 1.0;"/><text fill="#000000" font-family="sans-serif" font-size="11" lengthAdjust="spacingAndGlyphs" textLength="68" x="201.25" y="63.1348">renderData()</text><rect fill="#FEFECE" filter="url(#f1)" height="73.9102" style="stroke: #A80036; stroke-width: 1.5;" width="259" x="6" y="137"/><ellipse cx="102.75" cy="153" fill="#A9DCDF" rx="11" ry="11" style="stroke: #A80036; stroke-width: 1.0;"/><path d="M102.8633,148.3481 L101.7095,153.4199 L104.0254,153.4199 Z M101.3691,146.1069 L104.3657,146.1069 L107.7109,158.5 L105.2622,158.5 L104.4985,155.437 L101.2197,155.437 L100.4727,158.5 L98.0239,158.5 Z "/><text fill="#000000" font-family="sans-serif" font-size="12" font-style="italic" lengthAdjust="spacingAndGlyphs" textLength="57" x="123.25" y="157.5352">Decorator</text><line style="stroke: #A80036; stroke-width: 1.5;" x1="7" x2="264" y1="169" y2="169"/><polygon fill="none" points="17,175.9775,21,179.9775,17,183.9775,13,179.9775" style="stroke: #B38D22; stroke-width: 1.0;"/><text fill="#000000" font-family="sans-serif" font-size="11" lengthAdjust="spacingAndGlyphs" textLength="158" x="26" y="183.6348">$wrapped : RendererInterface</text><line style="stroke: #A80036; stroke-width: 1.5;" x1="7" x2="264" y1="189.9551" y2="189.9551"/><ellipse cx="17" cy="201.9326" fill="#84BE84" rx="3" ry="3" style="stroke: #038048; stroke-width: 1.0;"/><text fill="#000000" font-family="sans-serif" font-size="11" lengthAdjust="spacingAndGlyphs" textLength="233" x="26" y="204.5898">__construct(RendererInterface $wrappable)</text><rect fill="#FEFECE" filter="url(#f1)" height="60.9551" style="stroke: #A80036; stroke-width: 1.5;" width="108" x="10.25" y="278.5"/><ellipse cx="25.25" cy="294.5" fill="#ADD1B2" rx="11" ry="11" style="stroke: #A80036; stroke-width: 1.0;"/><path d="M28.2231,300.1431 Q27.6421,300.4419 27.0029,300.5913 Q26.3638,300.7407 25.6582,300.7407 Q23.1514,300.7407 21.8315,299.0889 Q20.5117,297.437 20.5117,294.3159 Q20.5117,291.1865 21.8315,289.5347 Q23.1514,287.8828 25.6582,287.8828 Q26.3638,287.8828 27.0112,288.0322 Q27.6587,288.1816 28.2231,288.4805 L28.2231,291.2031 Q27.5923,290.6221 26.9988,290.3523 Q26.4053,290.0825 25.7744,290.0825 Q24.4297,290.0825 23.7449,291.1492 Q23.0601,292.2158 23.0601,294.3159 Q23.0601,296.4077 23.7449,297.4744 Q24.4297,298.541 25.7744,298.541 Q26.4053,298.541 26.9988,298.2712 Q27.5923,298.0015 28.2231,297.4204 Z "/><text fill="#000000" font-family="sans-serif" font-size="12" lengthAdjust="spacingAndGlyphs" textLength="76" x="39.25" y="299.0352">RenderInJson</text><line style="stroke: #A80036; stroke-width: 1.5;" x1="11.25" x2="117.25" y1="310.5" y2="310.5"/><line style="stroke: #A80036; stroke-width: 1.5;" x1="11.25" x2="117.25" y1="318.5" y2="318.5"/><ellipse cx="21.25" cy="330.4775" fill="#84BE84" rx="3" ry="3" style="stroke: #038048; stroke-width: 1.0;"/><text fill="#000000" font-family="sans-serif" font-size="11" lengthAdjust="spacingAndGlyphs" textLength="68" x="30.25" y="333.1348">renderData()</text><rect fill="#FEFECE" filter="url(#f1)" height="60.9551" style="stroke: #A80036; stroke-width: 1.5;" width="106" x="153.25" y="278.5"/><ellipse cx="168.25" cy="294.5" fill="#ADD1B2" rx="11" ry="11" style="stroke: #A80036; stroke-width: 1.0;"/><path d="M171.2231,300.1431 Q170.6421,300.4419 170.0029,300.5913 Q169.3638,300.7407 168.6582,300.7407 Q166.1514,300.7407 164.8315,299.0889 Q163.5117,297.437 163.5117,294.3159 Q163.5117,291.1865 164.8315,289.5347 Q166.1514,287.8828 168.6582,287.8828 Q169.3638,287.8828 170.0112,288.0322 Q170.6587,288.1816 171.2231,288.4805 L171.2231,291.2031 Q170.5923,290.6221 169.9988,290.3523 Q169.4053,290.0825 168.7744,290.0825 Q167.4297,290.0825 166.7449,291.1492 Q166.0601,292.2158 166.0601,294.3159 Q166.0601,296.4077 166.7449,297.4744 Q167.4297,298.541 168.7744,298.541 Q169.4053,298.541 169.9988,298.2712 Q170.5923,298.0015 171.2231,297.4204 Z "/><text fill="#000000" font-family="sans-serif" font-size="12" lengthAdjust="spacingAndGlyphs" textLength="74" x="182.25" y="299.0352">RenderInXml</text><line style="stroke: #A80036; stroke-width: 1.5;" x1="154.25" x2="258.25" y1="310.5" y2="310.5"/><line style="stroke: #A80036; stroke-width: 1.5;" x1="154.25" x2="258.25" y1="318.5" y2="318.5"/><ellipse cx="164.25" cy="330.4775" fill="#84BE84" rx="3" ry="3" style="stroke: #038048; stroke-width: 1.0;"/><text fill="#000000" font-family="sans-serif" font-size="11" lengthAdjust="spacingAndGlyphs" textLength="68" x="173.25" y="333.1348">renderData()</text><rect fill="#FEFECE" filter="url(#f1)" height="86.8652" style="stroke: #A80036; stroke-width: 1.5;" width="128" x="300.25" y="130.5"/><ellipse cx="329.2" cy="146.5" fill="#ADD1B2" rx="11" ry="11" style="stroke: #A80036; stroke-width: 1.0;"/><path d="M332.1731,152.1431 Q331.5921,152.4419 330.9529,152.5913 Q330.3138,152.7407 329.6082,152.7407 Q327.1014,152.7407 325.7815,151.0889 Q324.4617,149.437 324.4617,146.3159 Q324.4617,143.1865 325.7815,141.5347 Q327.1014,139.8828 329.6082,139.8828 Q330.3138,139.8828 330.9612,140.0322 Q331.6087,140.1816 332.1731,140.4805 L332.1731,143.2031 Q331.5423,142.6221 330.9488,142.3523 Q330.3553,142.0825 329.7244,142.0825 Q328.3797,142.0825 327.6949,143.1492 Q327.0101,144.2158 327.0101,146.3159 Q327.0101,148.4077 327.6949,149.4744 Q328.3797,150.541 329.7244,150.541 Q330.3553,150.541 330.9488,150.2712 Q331.5423,150.0015 332.1731,149.4204 Z "/><text fill="#000000" font-family="sans-serif" font-size="12" lengthAdjust="spacingAndGlyphs" textLength="65" x="346.3" y="151.0352">Webservice</text><line style="stroke: #A80036; stroke-width: 1.5;" x1="301.25" x2="427.25" y1="162.5" y2="162.5"/><polygon fill="none" points="311.25,169.4775,315.25,173.4775,311.25,177.4775,307.25,173.4775" style="stroke: #B38D22; stroke-width: 1.0;"/><text fill="#000000" font-family="sans-serif" font-size="11" lengthAdjust="spacingAndGlyphs" textLength="72" x="320.25" y="177.1348">$data : mixed</text><line style="stroke: #A80036; stroke-width: 1.5;" x1="301.25" x2="427.25" y1="183.4551" y2="183.4551"/><ellipse cx="311.25" cy="195.4326" fill="#84BE84" rx="3" ry="3" style="stroke: #038048; stroke-width: 1.0;"/><text fill="#000000" font-family="sans-serif" font-size="11" lengthAdjust="spacingAndGlyphs" textLength="102" x="320.25" y="198.0898">__construct($data)</text><ellipse cx="311.25" cy="208.3877" fill="#84BE84" rx="3" ry="3" style="stroke: #038048; stroke-width: 1.0;"/><text fill="#000000" font-family="sans-serif" font-size="11" lengthAdjust="spacingAndGlyphs" textLength="68" x="320.25" y="211.0449">renderData()</text><path d="M106.42,229.005 C97.4096,245.8842 87.8042,263.8773 80.0403,278.4211 " fill="none" style="stroke: #A80036; stroke-width: 1.0; stroke-dasharray: 7.0,7.0;"/><polygon fill="none" points="100.255,225.69,115.849,211.343,112.605,232.283,100.255,225.69" style="stroke: #A80036; stroke-width: 1.0;"/><path d="M164.08,229.005 C173.09,245.8842 182.696,263.8773 190.46,278.4211 " fill="none" style="stroke: #A80036; stroke-width: 1.0; stroke-dasharray: 7.0,7.0;"/><polygon fill="none" points="157.895,232.283,154.651,211.343,170.245,225.69,157.895,232.283" style="stroke: #A80036; stroke-width: 1.0;"/><path d="M210.724,84.947 C196.208,101.883 179.899,120.91 166.166,136.932 " fill="none" style="stroke: #A80036; stroke-width: 1.0; stroke-dasharray: 7.0,7.0;"/><polygon fill="none" points="205.619,80.147,223.95,69.517,216.249,89.258,205.619,80.147" style="stroke: #A80036; stroke-width: 1.0;"/><path d="M287.933,84.738 C300.692,99.493 314.839,115.856 327.453,130.444 " fill="none" style="stroke: #A80036; stroke-width: 1.0; stroke-dasharray: 7.0,7.0;"/><polygon fill="none" points="282.558,89.224,274.772,69.517,293.149,80.067,282.558,89.224" style="stroke: #A80036; stroke-width: 1.0;"/></g></svg>