<?xml version="1.0" encoding="UTF-8" standalone="yes"?><svg xmlns="http://www.w3.org/2000/svg" xmlns:xlink="http://www.w3.org/1999/xlink" height="449pt" style="width:912px;height:449px;" version="1.1" viewBox="0 0 912 449" width="912pt"><defs><filter height="300%" id="f1" width="300%" x="-1" y="-1"><feGaussianBlur result="blurOut" stdDeviation="2.0"/><feColorMatrix in="blurOut" result="blurOut2" type="matrix" values="0 0 0 0 0 0 0 0 0 0 0 0 0 0 0 0 0 0 .4 0"/><feOffset dx="4.0" dy="4.0" in="blurOut2" result="blurOut3"/><feBlend in="SourceGraphic" in2="blurOut3" mode="normal"/></filter></defs><g><polygon fill="#FFFFFF" filter="url(#f1)" points="22,24,250,24,257,47.6094,905,47.6094,905,303,22,303,22,24" style="stroke: #000000; stroke-width: 2.0;"/><line style="stroke: #000000; stroke-width: 2.0;" x1="22" x2="257" y1="47.6094" y2="47.6094"/><text fill="#000000" font-family="sans-serif" font-size="14" font-weight="bold" lengthAdjust="spacingAndGlyphs" textLength="222" x="25" y="41">DesignPatterns.AbstractFactory</text><polygon fill="#FFFFFF" filter="url(#f1)" points="110,327,373,327,380,350.6094,384,350.6094,384,442,110,442,110,327" style="stroke: #000000; stroke-width: 2.0;"/><line style="stroke: #000000; stroke-width: 2.0;" x1="110" x2="380" y1="350.6094" y2="350.6094"/><text fill="#000000" font-family="sans-serif" font-size="14" font-weight="bold" lengthAdjust="spacingAndGlyphs" textLength="257" x="113" y="344">DesignPatterns.AbstractFactory.Html</text><polygon fill="#FFFFFF" filter="url(#f1)" points="453,327,719,327,726,350.6094,730,350.6094,730,442,453,442,453,327" style="stroke: #000000; stroke-width: 2.0;"/><line style="stroke: #000000; stroke-width: 2.0;" x1="453" x2="726" y1="350.6094" y2="350.6094"/><text fill="#000000" font-family="sans-serif" font-size="14" font-weight="bold" lengthAdjust="spacingAndGlyphs" textLength="260" x="456" y="344">DesignPatterns.AbstractFactory.Json</text><rect fill="#FEFECE" filter="url(#f1)" height="61.8359" style="stroke: #A80036; stroke-width: 1.5;" width="113" x="518.75" y="68"/><ellipse cx="533.75" cy="84" fill="#B4A7E5" rx="11" ry="11" style="stroke: #A80036; stroke-width: 1.0;"/><path d="M534.7031,80.6406 L534.7031,87.2969 L536.4219,87.2969 Q537.0313,87.2969 537.2969,87.5313 Q537.5625,87.7656 537.5625,88.1563 Q537.5625,88.5313 537.2969,88.7656 Q537.0313,89 536.4219,89 L531.2813,89 Q530.6719,89 530.4063,88.7656 Q530.1406,88.5313 530.1406,88.1406 Q530.1406,87.7656 530.4063,87.5313 Q530.6719,87.2969 531.2813,87.2969 L533,87.2969 L533,80.6406 L531.2813,80.6406 Q530.6719,80.6406 530.4063,80.4063 Q530.1406,80.1719 530.1406,79.7813 Q530.1406,79.4063 530.4063,79.1719 Q530.6719,78.9375 531.2813,78.9375 L536.4219,78.9375 Q537.0313,78.9375 537.2969,79.1719 Q537.5625,79.4063 537.5625,79.7813 Q537.5625,80.1719 537.2969,80.4063 Q537.0313,80.6406 536.4219,80.6406 L534.7031,80.6406 Z "/><text fill="#000000" font-family="sans-serif" font-size="12" font-style="italic" lengthAdjust="spacingAndGlyphs" textLength="81" x="547.75" y="88.4531">MediaInterface</text><line style="stroke: #A80036; stroke-width: 1.5;" x1="519.75" x2="630.75" y1="100" y2="100"/><line style="stroke: #A80036; stroke-width: 1.5;" x1="519.75" x2="630.75" y1="108" y2="108"/><ellipse cx="529.75" cy="120.418" fill="#84BE84" rx="3" ry="3" style="stroke: #038048; stroke-width: 1.0;"/><text fill="#000000" font-family="sans-serif" font-size="11" lengthAdjust="spacingAndGlyphs" textLength="40" x="538.75" y="123">render()</text><rect fill="#FEFECE" filter="url(#f1)" height="75.6719" style="stroke: #A80036; stroke-width: 1.5;" width="146" x="297" y="204"/><ellipse cx="354.75" cy="220" fill="#ADD1B2" rx="11" ry="11" style="stroke: #A80036; stroke-width: 1.0;"/><path d="M357.5156,215.875 Q357.6719,215.6563 357.8594,215.5469 Q358.0469,215.4375 358.2656,215.4375 Q358.6406,215.4375 358.875,215.6953 Q359.1094,215.9531 359.1094,216.5625 L359.1094,218.0156 Q359.1094,218.625 358.875,218.8906 Q358.6406,219.1563 358.2656,219.1563 Q357.9219,219.1563 357.7188,218.9531 Q357.5156,218.7656 357.4063,218.25 Q357.3594,217.8906 357.1719,217.7031 Q356.8438,217.3281 356.2344,217.1094 Q355.625,216.8906 355,216.8906 Q354.2344,216.8906 353.6016,217.2188 Q352.9688,217.5469 352.4766,218.2969 Q351.9844,219.0469 351.9844,220.0781 L351.9844,221.1719 Q351.9844,222.4063 352.875,223.2266 Q353.7656,224.0469 355.3594,224.0469 Q356.2969,224.0469 356.9531,223.7969 Q357.3438,223.6406 357.7656,223.2031 Q358.0313,222.9375 358.1797,222.8594 Q358.3281,222.7813 358.5313,222.7813 Q358.8594,222.7813 359.1172,223.0391 Q359.375,223.2969 359.375,223.6406 Q359.375,223.9844 359.0313,224.3906 Q358.5313,224.9688 357.7344,225.2969 Q356.6563,225.75 355.3594,225.75 Q353.8438,225.75 352.6406,225.125 Q351.6563,224.625 350.9688,223.5547 Q350.2813,222.4844 350.2813,221.2031 L350.2813,220.0469 Q350.2813,218.7188 350.8984,217.5703 Q351.5156,216.4219 352.6094,215.8047 Q353.7031,215.1875 354.9375,215.1875 Q355.6719,215.1875 356.3203,215.3516 Q356.9688,215.5156 357.5156,215.875 Z "/><text fill="#000000" font-family="sans-serif" font-size="12" lengthAdjust="spacingAndGlyphs" textLength="22" x="375.25" y="224.4531">Text</text><line style="stroke: #A80036; stroke-width: 1.5;" x1="298" x2="442" y1="236" y2="236"/><polygon fill="none" points="308,243.418,312,247.418,308,251.418,304,247.418" style="stroke: #B38D22; stroke-width: 1.0;"/><text fill="#000000" font-family="sans-serif" font-size="11" lengthAdjust="spacingAndGlyphs" textLength="54" x="317" y="251">text : string</text><line style="stroke: #A80036; stroke-width: 1.5;" x1="298" x2="442" y1="257.8359" y2="257.8359"/><ellipse cx="308" cy="270.2539" fill="#84BE84" rx="3" ry="3" style="stroke: #038048; stroke-width: 1.0;"/><text fill="#000000" font-family="sans-serif" font-size="11" lengthAdjust="spacingAndGlyphs" textLength="120" x="317" y="272.8359">__construct(text : string)</text><rect fill="#FEFECE" filter="url(#f1)" height="89.5078" style="stroke: #A80036; stroke-width: 1.5;" width="217" x="671.75" y="197"/><ellipse cx="757" cy="213" fill="#ADD1B2" rx="11" ry="11" style="stroke: #A80036; stroke-width: 1.0;"/><path d="M759.7656,208.875 Q759.9219,208.6563 760.1094,208.5469 Q760.2969,208.4375 760.5156,208.4375 Q760.8906,208.4375 761.125,208.6953 Q761.3594,208.9531 761.3594,209.5625 L761.3594,211.0156 Q761.3594,211.625 761.125,211.8906 Q760.8906,212.1563 760.5156,212.1563 Q760.1719,212.1563 759.9688,211.9531 Q759.7656,211.7656 759.6563,211.25 Q759.6094,210.8906 759.4219,210.7031 Q759.0938,210.3281 758.4844,210.1094 Q757.875,209.8906 757.25,209.8906 Q756.4844,209.8906 755.8516,210.2188 Q755.2188,210.5469 754.7266,211.2969 Q754.2344,212.0469 754.2344,213.0781 L754.2344,214.1719 Q754.2344,215.4063 755.125,216.2266 Q756.0156,217.0469 757.6094,217.0469 Q758.5469,217.0469 759.2031,216.7969 Q759.5938,216.6406 760.0156,216.2031 Q760.2813,215.9375 760.4297,215.8594 Q760.5781,215.7813 760.7813,215.7813 Q761.1094,215.7813 761.3672,216.0391 Q761.625,216.2969 761.625,216.6406 Q761.625,216.9844 761.2813,217.3906 Q760.7813,217.9688 759.9844,218.2969 Q758.9063,218.75 757.6094,218.75 Q756.0938,218.75 754.8906,218.125 Q753.9063,217.625 753.2188,216.5547 Q752.5313,215.4844 752.5313,214.2031 L752.5313,213.0469 Q752.5313,211.7188 753.1484,210.5703 Q753.7656,209.4219 754.8594,208.8047 Q755.9531,208.1875 757.1875,208.1875 Q757.9219,208.1875 758.5703,208.3516 Q759.2188,208.5156 759.7656,208.875 Z "/><text fill="#000000" font-family="sans-serif" font-size="12" lengthAdjust="spacingAndGlyphs" textLength="38" x="777.5" y="217.4531">Picture</text><line style="stroke: #A80036; stroke-width: 1.5;" x1="672.75" x2="887.75" y1="229" y2="229"/><polygon fill="none" points="682.75,236.418,686.75,240.418,682.75,244.418,678.75,240.418" style="stroke: #B38D22; stroke-width: 1.0;"/><text fill="#000000" font-family="sans-serif" font-size="11" lengthAdjust="spacingAndGlyphs" textLength="57" x="691.75" y="244">path : string</text><polygon fill="none" points="682.75,250.2539,686.75,254.2539,682.75,258.2539,678.75,254.2539" style="stroke: #B38D22; stroke-width: 1.0;"/><text fill="#000000" font-family="sans-serif" font-size="11" lengthAdjust="spacingAndGlyphs" textLength="62" x="691.75" y="257.8359">name : string</text><line style="stroke: #A80036; stroke-width: 1.5;" x1="672.75" x2="887.75" y1="264.6719" y2="264.6719"/><ellipse cx="682.75" cy="277.0898" fill="#84BE84" rx="3" ry="3" style="stroke: #038048; stroke-width: 1.0;"/><text fill="#000000" font-family="sans-serif" font-size="11" lengthAdjust="spacingAndGlyphs" textLength="191" x="691.75" y="279.6719">__construct(path : string, name : string)</text><rect fill="#FEFECE" filter="url(#f1)" height="75.6719" style="stroke: #A80036; stroke-width: 1.5;" width="214" x="156" y="61"/><ellipse cx="216.25" cy="77" fill="#A9DCDF" rx="11" ry="11" style="stroke: #A80036; stroke-width: 1.0;"/><path d="M218.4375,78.7656 L214.2969,78.7656 L213.875,79.7969 L214.2969,79.7969 Q214.9063,79.7969 215.1719,80.0313 Q215.4375,80.2656 215.4375,80.6563 Q215.4375,81.0313 215.1719,81.2656 Q214.9063,81.5 214.2969,81.5 L212,81.5 Q211.3906,81.5 211.1328,81.2656 Q210.875,81.0313 210.875,80.6406 Q210.875,80.2656 211.1484,80.0234 Q211.4219,79.7813 212.0469,79.7969 L214.7188,73.1406 L213.6094,73.1406 Q213,73.1406 212.7344,72.9063 Q212.4688,72.6719 212.4688,72.2813 Q212.4688,71.9063 212.7344,71.6719 Q213,71.4375 213.6094,71.4375 L217.2813,71.4375 L220.6719,79.7969 Q221.2656,79.7969 221.4531,79.9375 Q221.8438,80.2031 221.8438,80.6563 Q221.8438,81.0313 221.5859,81.2656 Q221.3281,81.5 220.7188,81.5 L218.4219,81.5 Q217.8125,81.5 217.5469,81.2656 Q217.2813,81.0313 217.2813,80.6406 Q217.2813,80.2656 217.5469,80.0313 Q217.8125,79.7969 218.4219,79.7969 L218.8438,79.7969 L218.4375,78.7656 Z M217.7188,77.0625 L216.3594,73.6875 L214.9844,77.0625 L217.7188,77.0625 Z "/><text fill="#000000" font-family="sans-serif" font-size="12" font-style="italic" lengthAdjust="spacingAndGlyphs" textLength="85" x="236.75" y="81.4531">AbstractFactory</text><line style="stroke: #A80036; stroke-width: 1.5;" x1="157" x2="369" y1="93" y2="93"/><line style="stroke: #A80036; stroke-width: 1.5;" x1="157" x2="369" y1="101" y2="101"/><text fill="#000000" font-family="sans-serif" font-size="11" font-style="italic" lengthAdjust="spacingAndGlyphs" textLength="134" x="162" y="116">createText(content : string)</text><text fill="#000000" font-family="sans-serif" font-size="11" font-style="italic" lengthAdjust="spacingAndGlyphs" textLength="202" x="162" y="129.8359">createPicture(path : string, name : string)</text><rect fill="#FEFECE" filter="url(#f1)" height="75.6719" style="stroke: #A80036; stroke-width: 1.5;" width="158" x="478" y="204"/><ellipse cx="520" cy="220" fill="#ADD1B2" rx="11" ry="11" style="stroke: #A80036; stroke-width: 1.0;"/><path d="M522.7656,215.875 Q522.9219,215.6563 523.1094,215.5469 Q523.2969,215.4375 523.5156,215.4375 Q523.8906,215.4375 524.125,215.6953 Q524.3594,215.9531 524.3594,216.5625 L524.3594,218.0156 Q524.3594,218.625 524.125,218.8906 Q523.8906,219.1563 523.5156,219.1563 Q523.1719,219.1563 522.9688,218.9531 Q522.7656,218.7656 522.6563,218.25 Q522.6094,217.8906 522.4219,217.7031 Q522.0938,217.3281 521.4844,217.1094 Q520.875,216.8906 520.25,216.8906 Q519.4844,216.8906 518.8516,217.2188 Q518.2188,217.5469 517.7266,218.2969 Q517.2344,219.0469 517.2344,220.0781 L517.2344,221.1719 Q517.2344,222.4063 518.125,223.2266 Q519.0156,224.0469 520.6094,224.0469 Q521.5469,224.0469 522.2031,223.7969 Q522.5938,223.6406 523.0156,223.2031 Q523.2813,222.9375 523.4297,222.8594 Q523.5781,222.7813 523.7813,222.7813 Q524.1094,222.7813 524.3672,223.0391 Q524.625,223.2969 524.625,223.6406 Q524.625,223.9844 524.2813,224.3906 Q523.7813,224.9688 522.9844,225.2969 Q521.9063,225.75 520.6094,225.75 Q519.0938,225.75 517.8906,225.125 Q516.9063,224.625 516.2188,223.5547 Q515.5313,222.4844 515.5313,221.2031 L515.5313,220.0469 Q515.5313,218.7188 516.1484,217.5703 Q516.7656,216.4219 517.8594,215.8047 Q518.9531,215.1875 520.1875,215.1875 Q520.9219,215.1875 521.5703,215.3516 Q522.2188,215.5156 522.7656,215.875 Z "/><text fill="#000000" font-family="sans-serif" font-size="12" lengthAdjust="spacingAndGlyphs" textLength="66" x="540" y="224.4531">JsonFactory</text><line style="stroke: #A80036; stroke-width: 1.5;" x1="479" x2="635" y1="236" y2="236"/><line style="stroke: #A80036; stroke-width: 1.5;" x1="479" x2="635" y1="244" y2="244"/><ellipse cx="489" cy="256.418" fill="#84BE84" rx="3" ry="3" style="stroke: #038048; stroke-width: 1.0;"/><text fill="#000000" font-family="sans-serif" font-size="11" lengthAdjust="spacingAndGlyphs" textLength="132" x="498" y="259">createText(content : string)</text><ellipse cx="489" cy="270.2539" fill="#84BE84" rx="3" ry="3" style="stroke: #038048; stroke-width: 1.0;"/><text fill="#000000" font-family="sans-serif" font-size="11" lengthAdjust="spacingAndGlyphs" textLength="125" x="498" y="272.8359">createPicture(path, name)</text><rect fill="#FEFECE" filter="url(#f1)" height="75.6719" style="stroke: #A80036; stroke-width: 1.5;" width="223" x="38.75" y="204"/><ellipse cx="113.5" cy="220" fill="#ADD1B2" rx="11" ry="11" style="stroke: #A80036; stroke-width: 1.0;"/><path d="M116.2656,215.875 Q116.4219,215.6563 116.6094,215.5469 Q116.7969,215.4375 117.0156,215.4375 Q117.3906,215.4375 117.625,215.6953 Q117.8594,215.9531 117.8594,216.5625 L117.8594,218.0156 Q117.8594,218.625 117.625,218.8906 Q117.3906,219.1563 117.0156,219.1563 Q116.6719,219.1563 116.4688,218.9531 Q116.2656,218.7656 116.1563,218.25 Q116.1094,217.8906 115.9219,217.7031 Q115.5938,217.3281 114.9844,217.1094 Q114.375,216.8906 113.75,216.8906 Q112.9844,216.8906 112.3516,217.2188 Q111.7188,217.5469 111.2266,218.2969 Q110.7344,219.0469 110.7344,220.0781 L110.7344,221.1719 Q110.7344,222.4063 111.625,223.2266 Q112.5156,224.0469 114.1094,224.0469 Q115.0469,224.0469 115.7031,223.7969 Q116.0938,223.6406 116.5156,223.2031 Q116.7813,222.9375 116.9297,222.8594 Q117.0781,222.7813 117.2813,222.7813 Q117.6094,222.7813 117.8672,223.0391 Q118.125,223.2969 118.125,223.6406 Q118.125,223.9844 117.7813,224.3906 Q117.2813,224.9688 116.4844,225.2969 Q115.4063,225.75 114.1094,225.75 Q112.5938,225.75 111.3906,225.125 Q110.4063,224.625 109.7188,223.5547 Q109.0313,222.4844 109.0313,221.2031 L109.0313,220.0469 Q109.0313,218.7188 109.6484,217.5703 Q110.2656,216.4219 111.3594,215.8047 Q112.4531,215.1875 113.6875,215.1875 Q114.4219,215.1875 115.0703,215.3516 Q115.7188,215.5156 116.2656,215.875 Z "/><text fill="#000000" font-family="sans-serif" font-size="12" lengthAdjust="spacingAndGlyphs" textLength="65" x="134" y="224.4531">HtmlFactory</text><line style="stroke: #A80036; stroke-width: 1.5;" x1="39.75" x2="260.75" y1="236" y2="236"/><line style="stroke: #A80036; stroke-width: 1.5;" x1="39.75" x2="260.75" y1="244" y2="244"/><ellipse cx="49.75" cy="256.418" fill="#84BE84" rx="3" ry="3" style="stroke: #038048; stroke-width: 1.0;"/><text fill="#000000" font-family="sans-serif" font-size="11" lengthAdjust="spacingAndGlyphs" textLength="132" x="58.75" y="259">createText(content : string)</text><ellipse cx="49.75" cy="270.2539" fill="#84BE84" rx="3" ry="3" style="stroke: #038048; stroke-width: 1.0;"/><text fill="#000000" font-family="sans-serif" font-size="11" lengthAdjust="spacingAndGlyphs" textLength="197" x="58.75" y="272.8359">createPicture(path : string, name : string)</text><rect fill="#FEFECE" filter="url(#f1)" height="61.8359" style="stroke: #A80036; stroke-width: 1.5;" width="70" x="262" y="364"/><ellipse cx="277" cy="380" fill="#ADD1B2" rx="11" ry="11" style="stroke: #A80036; stroke-width: 1.0;"/><path d="M279.7656,375.875 Q279.9219,375.6563 280.1094,375.5469 Q280.2969,375.4375 280.5156,375.4375 Q280.8906,375.4375 281.125,375.6953 Q281.3594,375.9531 281.3594,376.5625 L281.3594,378.0156 Q281.3594,378.625 281.125,378.8906 Q280.8906,379.1563 280.5156,379.1563 Q280.1719,379.1563 279.9688,378.9531 Q279.7656,378.7656 279.6563,378.25 Q279.6094,377.8906 279.4219,377.7031 Q279.0938,377.3281 278.4844,377.1094 Q277.875,376.8906 277.25,376.8906 Q276.4844,376.8906 275.8516,377.2188 Q275.2188,377.5469 274.7266,378.2969 Q274.2344,379.0469 274.2344,380.0781 L274.2344,381.1719 Q274.2344,382.4063 275.125,383.2266 Q276.0156,384.0469 277.6094,384.0469 Q278.5469,384.0469 279.2031,383.7969 Q279.5938,383.6406 280.0156,383.2031 Q280.2813,382.9375 280.4297,382.8594 Q280.5781,382.7813 280.7813,382.7813 Q281.1094,382.7813 281.3672,383.0391 Q281.625,383.2969 281.625,383.6406 Q281.625,383.9844 281.2813,384.3906 Q280.7813,384.9688 279.9844,385.2969 Q278.9063,385.75 277.6094,385.75 Q276.0938,385.75 274.8906,385.125 Q273.9063,384.625 273.2188,383.5547 Q272.5313,382.4844 272.5313,381.2031 L272.5313,380.0469 Q272.5313,378.7188 273.1484,377.5703 Q273.7656,376.4219 274.8594,375.8047 Q275.9531,375.1875 277.1875,375.1875 Q277.9219,375.1875 278.5703,375.3516 Q279.2188,375.5156 279.7656,375.875 Z "/><text fill="#000000" font-family="sans-serif" font-size="12" lengthAdjust="spacingAndGlyphs" textLength="38" x="291" y="384.4531">Picture</text><line style="stroke: #A80036; stroke-width: 1.5;" x1="263" x2="331" y1="396" y2="396"/><line style="stroke: #A80036; stroke-width: 1.5;" x1="263" x2="331" y1="404" y2="404"/><ellipse cx="273" cy="416.418" fill="#84BE84" rx="3" ry="3" style="stroke: #038048; stroke-width: 1.0;"/><text fill="#000000" font-family="sans-serif" font-size="11" lengthAdjust="spacingAndGlyphs" textLength="40" x="282" y="419">render()</text><rect fill="#FEFECE" filter="url(#f1)" height="61.8359" style="stroke: #A80036; stroke-width: 1.5;" width="66" x="161" y="364"/><ellipse cx="181.4" cy="380" fill="#ADD1B2" rx="11" ry="11" style="stroke: #A80036; stroke-width: 1.0;"/><path d="M184.1656,375.875 Q184.3219,375.6563 184.5094,375.5469 Q184.6969,375.4375 184.9156,375.4375 Q185.2906,375.4375 185.525,375.6953 Q185.7594,375.9531 185.7594,376.5625 L185.7594,378.0156 Q185.7594,378.625 185.525,378.8906 Q185.2906,379.1563 184.9156,379.1563 Q184.5719,379.1563 184.3688,378.9531 Q184.1656,378.7656 184.0563,378.25 Q184.0094,377.8906 183.8219,377.7031 Q183.4938,377.3281 182.8844,377.1094 Q182.275,376.8906 181.65,376.8906 Q180.8844,376.8906 180.2516,377.2188 Q179.6188,377.5469 179.1266,378.2969 Q178.6344,379.0469 178.6344,380.0781 L178.6344,381.1719 Q178.6344,382.4063 179.525,383.2266 Q180.4156,384.0469 182.0094,384.0469 Q182.9469,384.0469 183.6031,383.7969 Q183.9938,383.6406 184.4156,383.2031 Q184.6813,382.9375 184.8297,382.8594 Q184.9781,382.7813 185.1813,382.7813 Q185.5094,382.7813 185.7672,383.0391 Q186.025,383.2969 186.025,383.6406 Q186.025,383.9844 185.6813,384.3906 Q185.1813,384.9688 184.3844,385.2969 Q183.3063,385.75 182.0094,385.75 Q180.4938,385.75 179.2906,385.125 Q178.3063,384.625 177.6188,383.5547 Q176.9313,382.4844 176.9313,381.2031 L176.9313,380.0469 Q176.9313,378.7188 177.5484,377.5703 Q178.1656,376.4219 179.2594,375.8047 Q180.3531,375.1875 181.5875,375.1875 Q182.3219,375.1875 182.9703,375.3516 Q183.6188,375.5156 184.1656,375.875 Z "/><text fill="#000000" font-family="sans-serif" font-size="12" lengthAdjust="spacingAndGlyphs" textLength="22" x="196.6" y="384.4531">Text</text><line style="stroke: #A80036; stroke-width: 1.5;" x1="162" x2="226" y1="396" y2="396"/><line style="stroke: #A80036; stroke-width: 1.5;" x1="162" x2="226" y1="404" y2="404"/><ellipse cx="172" cy="416.418" fill="#84BE84" rx="3" ry="3" style="stroke: #038048; stroke-width: 1.0;"/><text fill="#000000" font-family="sans-serif" font-size="11" lengthAdjust="spacingAndGlyphs" textLength="40" x="181" y="419">render()</text><rect fill="#FEFECE" filter="url(#f1)" height="61.8359" style="stroke: #A80036; stroke-width: 1.5;" width="70" x="573" y="364"/><ellipse cx="588" cy="380" fill="#ADD1B2" rx="11" ry="11" style="stroke: #A80036; stroke-width: 1.0;"/><path d="M590.7656,375.875 Q590.9219,375.6563 591.1094,375.5469 Q591.2969,375.4375 591.5156,375.4375 Q591.8906,375.4375 592.125,375.6953 Q592.3594,375.9531 592.3594,376.5625 L592.3594,378.0156 Q592.3594,378.625 592.125,378.8906 Q591.8906,379.1563 591.5156,379.1563 Q591.1719,379.1563 590.9688,378.9531 Q590.7656,378.7656 590.6563,378.25 Q590.6094,377.8906 590.4219,377.7031 Q590.0938,377.3281 589.4844,377.1094 Q588.875,376.8906 588.25,376.8906 Q587.4844,376.8906 586.8516,377.2188 Q586.2188,377.5469 585.7266,378.2969 Q585.2344,379.0469 585.2344,380.0781 L585.2344,381.1719 Q585.2344,382.4063 586.125,383.2266 Q587.0156,384.0469 588.6094,384.0469 Q589.5469,384.0469 590.2031,383.7969 Q590.5938,383.6406 591.0156,383.2031 Q591.2813,382.9375 591.4297,382.8594 Q591.5781,382.7813 591.7813,382.7813 Q592.1094,382.7813 592.3672,383.0391 Q592.625,383.2969 592.625,383.6406 Q592.625,383.9844 592.2813,384.3906 Q591.7813,384.9688 590.9844,385.2969 Q589.9063,385.75 588.6094,385.75 Q587.0938,385.75 585.8906,385.125 Q584.9063,384.625 584.2188,383.5547 Q583.5313,382.4844 583.5313,381.2031 L583.5313,380.0469 Q583.5313,378.7188 584.1484,377.5703 Q584.7656,376.4219 585.8594,375.8047 Q586.9531,375.1875 588.1875,375.1875 Q588.9219,375.1875 589.5703,375.3516 Q590.2188,375.5156 590.7656,375.875 Z "/><text fill="#000000" font-family="sans-serif" font-size="12" lengthAdjust="spacingAndGlyphs" textLength="38" x="602" y="384.4531">Picture</text><line style="stroke: #A80036; stroke-width: 1.5;" x1="574" x2="642" y1="396" y2="396"/><line style="stroke: #A80036; stroke-width: 1.5;" x1="574" x2="642" y1="404" y2="404"/><ellipse cx="584" cy="416.418" fill="#84BE84" rx="3" ry="3" style="stroke: #038048; stroke-width: 1.0;"/><text fill="#000000" font-family="sans-serif" font-size="11" lengthAdjust="spacingAndGlyphs" textLength="40" x="593" y="419">render()</text><rect fill="#FEFECE" filter="url(#f1)" height="61.8359" style="stroke: #A80036; stroke-width: 1.5;" width="66" x="472" y="364"/><ellipse cx="492.4" cy="380" fill="#ADD1B2" rx="11" ry="11" style="stroke: #A80036; stroke-width: 1.0;"/><path d="M495.1656,375.875 Q495.3219,375.6563 495.5094,375.5469 Q495.6969,375.4375 495.9156,375.4375 Q496.2906,375.4375 496.525,375.6953 Q496.7594,375.9531 496.7594,376.5625 L496.7594,378.0156 Q496.7594,378.625 496.525,378.8906 Q496.2906,379.1563 495.9156,379.1563 Q495.5719,379.1563 495.3688,378.9531 Q495.1656,378.7656 495.0563,378.25 Q495.0094,377.8906 494.8219,377.7031 Q494.4938,377.3281 493.8844,377.1094 Q493.275,376.8906 492.65,376.8906 Q491.8844,376.8906 491.2516,377.2188 Q490.6188,377.5469 490.1266,378.2969 Q489.6344,379.0469 489.6344,380.0781 L489.6344,381.1719 Q489.6344,382.4063 490.525,383.2266 Q491.4156,384.0469 493.0094,384.0469 Q493.9469,384.0469 494.6031,383.7969 Q494.9938,383.6406 495.4156,383.2031 Q495.6813,382.9375 495.8297,382.8594 Q495.9781,382.7813 496.1813,382.7813 Q496.5094,382.7813 496.7672,383.0391 Q497.025,383.2969 497.025,383.6406 Q497.025,383.9844 496.6813,384.3906 Q496.1813,384.9688 495.3844,385.2969 Q494.3063,385.75 493.0094,385.75 Q491.4938,385.75 490.2906,385.125 Q489.3063,384.625 488.6188,383.5547 Q487.9313,382.4844 487.9313,381.2031 L487.9313,380.0469 Q487.9313,378.7188 488.5484,377.5703 Q489.1656,376.4219 490.2594,375.8047 Q491.3531,375.1875 492.5875,375.1875 Q493.3219,375.1875 493.9703,375.3516 Q494.6188,375.5156 495.1656,375.875 Z "/><text fill="#000000" font-family="sans-serif" font-size="12" lengthAdjust="spacingAndGlyphs" textLength="22" x="507.6" y="384.4531">Text</text><line style="stroke: #A80036; stroke-width: 1.5;" x1="473" x2="537" y1="396" y2="396"/><line style="stroke: #A80036; stroke-width: 1.5;" x1="473" x2="537" y1="404" y2="404"/><ellipse cx="483" cy="416.418" fill="#84BE84" rx="3" ry="3" style="stroke: #038048; stroke-width: 1.0;"/><text fill="#000000" font-family="sans-serif" font-size="11" lengthAdjust="spacingAndGlyphs" textLength="40" x="492" y="419">render()</text><path d="M514.608,141.538 C485.851,161.317 451.743,184.777 423.875,203.944 " fill="none" style="stroke: #A80036; stroke-width: 1.0; stroke-dasharray: 7.0,7.0;"/><polygon fill="none" points="510.828,135.642,531.274,130.075,518.762,147.177,510.828,135.642" style="stroke: #A80036; stroke-width: 1.0;"/><path d="M635.451,141.579 C660.7,158.945 690.065,179.143 715.708,196.78 " fill="none" style="stroke: #A80036; stroke-width: 1.0; stroke-dasharray: 7.0,7.0;"/><polygon fill="none" points="631.238,147.177,618.726,130.075,639.172,135.642,631.238,147.177" style="stroke: #A80036; stroke-width: 1.0;"/><path d="M358.429,145.767 C397.704,164.603 442.603,186.136 479.761,203.957 " fill="none" style="stroke: #A80036; stroke-width: 1.0;"/><polygon fill="none" points="355.251,152.006,340.245,137.046,361.305,139.383,355.251,152.006" style="stroke: #A80036; stroke-width: 1.0;"/><path d="M220.753,152.715 C207.162,169.674 192.394,188.101 179.883,203.712 " fill="none" style="stroke: #A80036; stroke-width: 1.0;"/><polygon fill="none" points="215.341,148.275,233.311,137.046,226.265,157.03,215.341,148.275" style="stroke: #A80036; stroke-width: 1.0;"/><path d="M211.389,288.539 C222.735,298.072 234.111,308.449 244,319 C256.757,332.611 268.924,349.446 278.375,363.7157 " fill="none" style="stroke: #A80036; stroke-width: 1.0;"/><polygon fill="#A80036" points="201.022,280.042,203.1271,286.939,210.3033,287.6485,208.1981,280.7515,201.022,280.042" style="stroke: #A80036; stroke-width: 1.0;"/><path d="M164.535,292.88 C171.356,316.289 179.263,343.425 185.168,363.6897 " fill="none" style="stroke: #A80036; stroke-width: 1.0;"/><polygon fill="#A80036" points="160.876,280.326,158.7143,287.2055,164.2332,291.8468,166.3949,284.9673,160.876,280.326" style="stroke: #A80036; stroke-width: 1.0;"/><path d="M573.847,292.88 C581.753,316.289 590.918,343.425 597.763,363.6897 " fill="none" style="stroke: #A80036; stroke-width: 1.0;"/><polygon fill="#A80036" points="569.607,280.326,567.7375,287.2905,573.4472,291.6949,575.3167,284.7304,569.607,280.326" style="stroke: #A80036; stroke-width: 1.0;"/><path d="M539.823,292.88 C531.762,316.289 522.417,343.425 515.438,363.6897 " fill="none" style="stroke: #A80036; stroke-width: 1.0;"/><polygon fill="#A80036" points="544.146,280.326,538.4103,284.6966,540.2387,291.6721,545.9744,287.3015,544.146,280.326" style="stroke: #A80036; stroke-width: 1.0;"/><path d="M310.952,291.963 C300.421,299.113 289.219,305.803 278,311 C263.914,317.525 256.751,310.146 244,319 C227.932,330.157 215.635,348.3 207.257,363.9465 " fill="none" style="stroke: #A80036; stroke-width: 1.0;"/><polygon fill="none" points="307.073,286.13,327.384,280.093,315.271,297.479,307.073,286.13" style="stroke: #A80036; stroke-width: 1.0;"/><path d="M693.846,296.008 C680.876,302.045 667.361,307.336 654,311 C611.532,322.645 498.768,308.508 456,319 C410.944,330.053 363.338,354.421 332.095,372.3958 " fill="none" style="stroke: #A80036; stroke-width: 1.0;"/><polygon fill="none" points="690.724,289.742,711.745,287.069,696.98,302.267,690.724,289.742" style="stroke: #A80036; stroke-width: 1.0;"/><path d="M416.933,295.496 C437.312,318.289 460.455,344.176 477.901,363.6897 " fill="none" style="stroke: #A80036; stroke-width: 1.0;"/><polygon fill="none" points="411.482,299.901,403.371,280.326,421.919,290.57,411.482,299.901" style="stroke: #A80036; stroke-width: 1.0;"/><path d="M714.445,300.551 C689.826,322.165 662.834,345.861 642.191,363.9839 " fill="none" style="stroke: #A80036; stroke-width: 1.0;"/><polygon fill="none" points="710.14,295.016,729.788,287.081,719.376,305.537,710.14,295.016" style="stroke: #A80036; stroke-width: 1.0;"/></g></svg>