<?xml version="1.0" encoding="UTF-8" standalone="yes"?><svg xmlns="http://www.w3.org/2000/svg" xmlns:xlink="http://www.w3.org/1999/xlink" height="276pt" style="width:237px;height:276px;" version="1.1" viewBox="0 0 237 276" width="237pt"><defs><filter height="300%" id="f1" width="300%" x="-1" y="-1"><feGaussianBlur result="blurOut" stdDeviation="2.0"/><feColorMatrix in="blurOut" result="blurOut2" type="matrix" values="0 0 0 0 0 0 0 0 0 0 0 0 0 0 0 0 0 0 .4 0"/><feOffset dx="4.0" dy="4.0" in="blurOut2" result="blurOut3"/><feBlend in="SourceGraphic" in2="blurOut3" mode="normal"/></filter></defs><g><rect fill="#FEFECE" filter="url(#f1)" height="99.8203" style="stroke: #A80036; stroke-width: 1.5;" width="222" x="6" y="8"/><ellipse cx="92.25" cy="24" fill="#ADD1B2" rx="11" ry="11" style="stroke: #A80036; stroke-width: 1.0;"/><path d="M95.2231,29.6431 Q94.6421,29.9419 94.0029,30.0913 Q93.3638,30.2407 92.6582,30.2407 Q90.1514,30.2407 88.8315,28.5889 Q87.5117,26.937 87.5117,23.8159 Q87.5117,20.6865 88.8315,19.0347 Q90.1514,17.3828 92.6582,17.3828 Q93.3638,17.3828 94.0112,17.5322 Q94.6587,17.6816 95.2231,17.9805 L95.2231,20.7031 Q94.5923,20.1221 93.9988,19.8523 Q93.4053,19.5825 92.7744,19.5825 Q91.4297,19.5825 90.7449,20.6492 Q90.0601,21.7158 90.0601,23.8159 Q90.0601,25.9077 90.7449,26.9744 Q91.4297,28.041 92.7744,28.041 Q93.4053,28.041 93.9988,27.7712 Q94.5923,27.5015 95.2231,26.9204 Z "/><text fill="#000000" font-family="sans-serif" font-size="12" lengthAdjust="spacingAndGlyphs" textLength="41" x="112.75" y="28.5352">Record</text><line style="stroke: #A80036; stroke-width: 1.5;" x1="7" x2="227" y1="40" y2="40"/><polygon fill="none" points="17,46.9775,21,50.9775,17,54.9775,13,50.9775" style="stroke: #B38D22; stroke-width: 1.0;"/><text fill="#000000" font-family="sans-serif" font-size="11" lengthAdjust="spacingAndGlyphs" textLength="91" x="26" y="54.6348">$data : array|null</text><line style="stroke: #A80036; stroke-width: 1.5;" x1="7" x2="227" y1="60.9551" y2="60.9551"/><ellipse cx="17" cy="72.9326" fill="#84BE84" rx="3" ry="3" style="stroke: #038048; stroke-width: 1.0;"/><text fill="#000000" font-family="sans-serif" font-size="11" lengthAdjust="spacingAndGlyphs" textLength="137" x="26" y="75.5898">__construct($data = null)</text><ellipse cx="17" cy="85.8877" fill="#84BE84" rx="3" ry="3" style="stroke: #038048; stroke-width: 1.0;"/><text fill="#000000" font-family="sans-serif" font-size="11" lengthAdjust="spacingAndGlyphs" textLength="196" x="26" y="88.5449">__set($name : string, $value : mixed)</text><ellipse cx="17" cy="98.8428" fill="#84BE84" rx="3" ry="3" style="stroke: #038048; stroke-width: 1.0;"/><text fill="#000000" font-family="sans-serif" font-size="11" lengthAdjust="spacingAndGlyphs" textLength="114" x="26" y="101.5">__get($name : string)</text><rect fill="#FEFECE" filter="url(#f1)" height="99.8203" style="stroke: #A80036; stroke-width: 1.5;" width="222" x="6" y="168"/><ellipse cx="76.25" cy="184" fill="#ADD1B2" rx="11" ry="11" style="stroke: #A80036; stroke-width: 1.0;"/><path d="M79.2231,189.6431 Q78.6421,189.9419 78.0029,190.0913 Q77.3638,190.2407 76.6582,190.2407 Q74.1514,190.2407 72.8315,188.5889 Q71.5117,186.937 71.5117,183.8159 Q71.5117,180.6865 72.8315,179.0347 Q74.1514,177.3828 76.6582,177.3828 Q77.3638,177.3828 78.0112,177.5322 Q78.6587,177.6816 79.2231,177.9805 L79.2231,180.7031 Q78.5923,180.1221 77.9988,179.8523 Q77.4053,179.5825 76.7744,179.5825 Q75.4297,179.5825 74.7449,180.6492 Q74.0601,181.7158 74.0601,183.8159 Q74.0601,185.9077 74.7449,186.9744 Q75.4297,188.041 76.7744,188.041 Q77.4053,188.041 77.9988,187.7712 Q78.5923,187.5015 79.2231,186.9204 Z "/><text fill="#000000" font-family="sans-serif" font-size="12" lengthAdjust="spacingAndGlyphs" textLength="73" x="96.75" y="188.5352">RecordProxy</text><line style="stroke: #A80036; stroke-width: 1.5;" x1="7" x2="227" y1="200" y2="200"/><polygon fill="none" points="17,206.9775,21,210.9775,17,214.9775,13,210.9775" style="stroke: #B38D22; stroke-width: 1.0;"/><text fill="#000000" font-family="sans-serif" font-size="11" lengthAdjust="spacingAndGlyphs" textLength="75" x="26" y="214.6348">$isDirty : bool</text><polygon fill="none" points="17,219.9326,21,223.9326,17,227.9326,13,223.9326" style="stroke: #B38D22; stroke-width: 1.0;"/><text fill="#000000" font-family="sans-serif" font-size="11" lengthAdjust="spacingAndGlyphs" textLength="100" x="26" y="227.5898">$isInitialized : bool</text><line style="stroke: #A80036; stroke-width: 1.5;" x1="7" x2="227" y1="233.9102" y2="233.9102"/><ellipse cx="17" cy="245.8877" fill="#84BE84" rx="3" ry="3" style="stroke: #038048; stroke-width: 1.0;"/><text fill="#000000" font-family="sans-serif" font-size="11" lengthAdjust="spacingAndGlyphs" textLength="132" x="26" y="248.5449">__construct(data : array)</text><ellipse cx="17" cy="258.8428" fill="#84BE84" rx="3" ry="3" style="stroke: #038048; stroke-width: 1.0;"/><text fill="#000000" font-family="sans-serif" font-size="11" lengthAdjust="spacingAndGlyphs" textLength="196" x="26" y="261.5">__set($name : string, $value : mixed)</text><path d="M117,128.485 C117,141.771 117,155.422 117,167.904 " fill="none" style="stroke: #A80036; stroke-width: 1.0; stroke-dasharray: 7.0,7.0;"/><polygon fill="none" points="110,128.126,117,108.126,124,128.126,110,128.126" style="stroke: #A80036; stroke-width: 1.0;"/></g></svg>